<svg xmlns="http://www.w3.org/2000/svg" viewBox="0 0 28.69 55.3"><path d="M15.2 15.67c-.02-1.27.58-2.27 1.15-3.24.76-1.28 1.54-2.6 1-4.42-.55-1.67-1.61-2.48-2.54-3.21-1.25-.97-2.16-1.68-1.69-4.34l.04-.23-1.35-.24-.04.23c-.61 3.48.88 4.64 2.2 5.67.85.66 1.65 1.29 2.07 2.54.37 1.22-.18 2.14-.87 3.31-.64 1.08-1.37 2.3-1.35 3.93C6.98 15.67 0 15.96 0 40.26c0 10.95 8.8 15.03 14.35 15.03S28.7 51.21 28.7 40.26c0-24.27-7.12-24.57-13.49-24.59Zm-.17 1.37c5.64.01 10.93.24 12.06 16.15-3.86 1.8-7.92 2.77-12.06 2.86v-2.97c.85-.17 1.47-.91 1.48-1.78v-8.96c0-.87-.63-1.62-1.48-1.78v-3.53Zm-1.37 0v3.53c-.85.17-1.47.91-1.48 1.78v8.96c0 .87.63 1.62 1.48 1.78v2.97c-6.31-.15-10.9-2.25-12.06-2.84 1.13-15.94 6.42-16.16 12.06-16.17Zm.69 36.88c-5.02 0-12.98-3.71-12.98-13.66 0-1.98.05-3.85.13-5.56 2 .93 6.7 2.74 12.87 2.74 4.39 0 8.7-.93 12.81-2.77.09 1.72.14 3.6.14 5.6 0 9.95-7.96 13.66-12.97 13.66Z" style="stroke-width:0;fill:currentColor;fill-opacity:1"/></svg>