<svg id="Layer_2" xmlns="http://www.w3.org/2000/svg" viewBox="0 0 95.09 118.43"><defs><style>.cls-2{stroke-width:0}</style></defs><g id="Layer_1-2"><path class="cls-2" d="M.04 84.94s-.28-1.32.58-.72l2.95 2.06.87-1.32c1.8-2.7 3.61-5.41 5.41-8.12 0 0 .19-.54.86-.06.68.47 6.21 4.33 6.69 4.67s.22.72.22.72c-1.09 1.64-3.95 5.93-5.42 8.13l-.78 1.18 2.73 1.9c1.04.73-.28.99-.28.99s-9.75 2.06-10.79 2.26c-.76.14-.85-.67-.85-.67z" style="fill:currentColor;fill-opacity:1"/><path d="M44.92 16.85c-5.85 0-10.59 4.86-10.59 10.86s4.74 10.86 10.59 10.86 10.59-4.86 10.59-10.86-4.74-10.86-10.59-10.86m0 19.47c-4.64 0-8.4-3.86-8.4-8.61s3.76-8.61 8.4-8.61 8.4 3.86 8.4 8.61-3.76 8.61-8.4 8.61M23.24 56.17c-5.46 0-9.88 4.7-9.88 10.51s4.42 10.5 9.88 10.5 9.88-4.7 9.88-10.5-4.42-10.51-9.88-10.51m0 18.83c-4.33 0-7.84-3.73-7.84-8.33s3.51-8.33 7.84-8.33 7.83 3.73 7.83 8.33S27.56 75 23.24 75" style="fill:currentColor;fill-opacity:1"/><path class="cls-2" d="m89.48 111.78-1.89 6.65-38.78-.37s2.83-2.59-2.12-7.02c0 0-10.82-5.23-18.51-18.1 0 0-6.31-6.74-6.09-9.21-.58-4.41-1.21-6.96-1.72-8.54-1.06-4.04-1.55-2.84-1.55-7.23 2.45-14.33 10.87 1.81 12.76 5.49 0 0 6.3 7.58 9.06 9.28 8.85-2.29 3.04-22.11 3.66-23.67 0 0-1.25-10.04-2.82-23.06-3.99-15.56 8.29-19.63 11.64-3.09 1.54 7.35 3.69 19.53 4.48 19.77 0 0 8.4-7.39 13 3.32 0 0 9.2-5.54 12.74 5.17 0 0 12.39 1.11 11.33 12.92 0 0 2.6 22.16-5.19 37.67M49.85 14.9c.7.47 6.36 4.27 6.86 4.6.49.33.75-.05.75-.05 1.12-1.62 4.04-5.84 5.55-8.01.49-.7.8-1.16.8-1.16l2.79 1.88c1.08.72.81-.62.81-.62S65.68 1.64 65.48.59c-.15-.76-.94-.55-.94-.55L53.46 1.95s-1.34.21-.46.81c.89.59 3.03 2.03 3.03 2.03s-.35.51-.9 1.29c-1.85 2.66-3.69 5.33-5.54 8 0 0-.43.37.26.84" style="fill:currentColor;fill-opacity:1"/></g></svg>