<svg xmlns="http://www.w3.org/2000/svg" viewBox="0 0 76.66 133.42"><path d="M18.65 0C12.36 0 7.26 5.1 7.26 11.4s5.1 11.4 11.4 11.4 11.4-5.1 11.4-11.4c0-6.29-5.1-11.4-11.4-11.4m0 20.43c-4.99 0-9.04-4.05-9.04-9.04s4.05-9.04 9.04-9.04 9.04 4.05 9.04 9.04-4.05 9.04-9.04 9.04" style="fill:currentColor;fill-opacity:1"/><path d="M76.15 80.9c1.31-14.01-14.01-15.32-14.01-15.32-4.37-12.69-15.76-6.13-15.76-6.13-5.69-12.69-17.07-3.94-17.07-3.94-1.41-.42-3.71-43.72-4.91-43.91-.97-4.54-10.4-13.33-11.9 3.17 0 36.5-1.14 47.3-1.14 47.3-2.19 5.25-6.07 18.38-6.07 18.38C-3.03 89.64.91 96.21.91 96.21c7 12.26 21.39 28.45 21.39 28.45 6.13 5.25 2.63 8.32 2.63 8.32l42.46.44 2.33-7.88c9.63-18.38 6.42-44.64 6.42-44.64Zm-12.9 12.93c-.68.72-7.15 7.37-7.15 7.37s-.86.92-.86-.3v-3.17h-9.95s-.08 0-.16-.05v.13c.02.09 0 .16 0 .17v.05s.02.08 0 .17v10.49h3.23c.94 0 .08.87.08.87l-7.12 7.36s-.47.58-.96.06c-.68-.72-6.94-7.59-6.94-7.59s-.87-.92.28-.92h2.98V97.68c-.08.04-.16.05-.16.05h-9.96v3.17c0 1.22-.86.3-.86.3s-6.47-6.65-7.15-7.38c-.49-.53.05-1.02.05-1.02l6.93-7.57s.82-.92.82.08v3.43h10.08s.12-.03.24.03V77.99h-2.98c-1.15 0-.28-.92-.28-.92s6.26-6.87 6.94-7.6c.49-.52.96.06.96.06l7.12 7.36s.87.88-.08.87h-3.23v10.99c.12-.06.24-.03.24-.03h10.08v-3.43c0-1 .82-.08.82-.08l6.93 7.57s.55.5.06 1.03Z" style="fill:currentColor;fill-opacity:1"/></svg>