<svg xmlns="http://www.w3.org/2000/svg" viewBox="0 0 99 101.58"><path d="M48.83 0c-5.85 0-10.59 4.86-10.59 10.86s4.74 10.86 10.59 10.86 10.59-4.86 10.59-10.86S54.68 0 48.83 0m0 19.47c-4.64 0-8.4-3.86-8.4-8.61s3.76-8.61 8.4-8.61 8.4 3.86 8.4 8.61-3.76 8.61-8.4 8.61M27.15 39.32c-5.46 0-9.88 4.7-9.88 10.5s4.42 10.5 9.88 10.5 9.88-4.7 9.88-10.5-4.42-10.5-9.88-10.5m0 18.83c-4.33 0-7.83-3.73-7.83-8.33s3.51-8.33 7.83-8.33 7.83 3.73 7.83 8.33-3.51 8.33-7.83 8.33" style="fill:currentColor;fill-opacity:1"/><path d="m93.4 94.93-1.89 6.65-38.78-.37s2.83-2.59-2.12-7.02c0 0-10.82-5.23-18.51-18.1 0 0-6.31-6.74-6.09-9.21-.58-4.41-1.21-6.96-1.72-8.53-1.06-4.04-1.55-2.85-1.55-7.23 2.45-14.33 10.87 1.81 12.76 5.49 0 0 6.31 7.58 9.06 9.28 8.85-2.29 3.04-22.11 3.66-23.67 0 0-1.25-10.04-2.82-23.07-3.99-15.56 8.29-19.63 11.64-3.09 1.55 7.34 3.69 19.53 4.48 19.77 0 0 8.39-7.39 13 3.32 0 0 9.2-5.54 12.74 5.17 0 0 12.39 1.11 11.33 12.92 0 0 2.6 22.16-5.19 37.67M36.86 10.53l-5.73 12.51s-.67 1.52-1.19.32c-.53-1.2-1.8-4.09-1.8-4.09s-.77.28-1.96.71c-3.41 1.23-9.62 3.46-12.15 4.37 0 0-.61.41-1.02-.53-.42-.94-3.78-8.6-4.08-9.28-.29-.67.29-.87.29-.87 2.45-.89 8.86-3.2 12.17-4.38l1.76-.63s-1.03-2.32-1.66-3.78c-.64-1.45 1.05-.79 1.05-.79S35.07 8.77 36.4 9.28c.96.38.46 1.25.46 1.25M.13 39.22l5.46-12.83s.64-1.56 1.13-.35c.53 1.24 1.77 4.18 1.77 4.18s.74-.28 1.91-.74c3.26-1.27 9.25-3.58 11.69-4.53 0 0 .57-.42.99.57.39.96 3.68 8.75 4 9.46.28.67-.28.89-.28.89-2.37.92-8.54 3.33-11.73 4.54-1.03.43-1.7.67-1.7.67s.99 2.37 1.63 3.86-.99.81-.99.81S1.86 41.04.58 40.51c-.96-.39-.46-1.28-.46-1.28" style="fill:currentColor;fill-opacity:1"/></svg>